<?xml version="1.0" standalone="no"?>
<!DOCTYPE svg PUBLIC "-//W3C//DTD SVG 20010904//EN"
 "http://www.w3.org/TR/2001/REC-SVG-20010904/DTD/svg10.dtd">
<svg version="1.0" xmlns="http://www.w3.org/2000/svg"
 width="672.000000pt" height="229.000000pt" viewBox="0 0 672.000000 229.000000"
 preserveAspectRatio="xMidYMid meet">

<g transform="translate(0.000000,229.000000) scale(0.100000,-0.100000)"
fill="#ffffff" stroke="none">
<path d="M25 2145 c-20 -100 -26 -151 -20 -161 9 -13 51 -15 296 -14 l286 1 6
-323 c3 -184 -1 -508 -9 -753 -7 -236 -10 -454 -6 -484 7 -52 9 -55 41 -64 19
-4 110 -7 203 -5 156 3 171 5 184 23 13 17 14 66 7 350 -9 371 -8 1170 2 1222
l6 33 260 0 259 0 10 26 c6 14 10 86 10 160 l0 134 -753 0 -753 0 -29 -145z
m1476 85 c4 -14 7 -67 8 -119 l1 -94 -273 6 -274 6 -6 -136 c-14 -283 -3
-1125 18 -1425 l5 -78 -181 0 -182 0 7 138 c26 554 26 1467 -1 1492 -4 5 -133
3 -286 -2 -153 -6 -279 -9 -281 -7 -3 4 30 191 40 227 3 12 35 13 177 6 229
-10 981 -7 1082 4 119 14 138 12 146 -18z"/>
<path d="M1905 2065 c-5 -1 -46 -13 -90 -25 -323 -91 -586 -324 -705 -625 -31
-78 -70 -229 -70 -270 0 -25 1 -26 57 -23 l56 3 13 65 c43 214 157 414 308
541 125 106 245 165 424 209 l92 22 0 54 0 54 -37 -1 c-21 0 -42 -2 -48 -4z"/>
<path d="M1930 1863 c-251 -42 -486 -217 -603 -449 -39 -78 -92 -255 -84 -279
8 -18 41 -20 54 -2 6 6 18 45 28 85 42 173 164 347 319 451 85 58 143 84 255
116 81 24 101 36 101 61 0 11 -24 25 -38 23 -4 -1 -18 -4 -32 -6z"/>
<path d="M3555 1849 c-137 -3 -258 -7 -269 -8 -17 -1 -18 -13 -15 -272 l4
-270 -59 -40 c-32 -21 -62 -39 -67 -39 -4 0 -11 17 -14 38 -11 65 -14 67 -101
64 -44 -1 -99 -6 -124 -10 l-45 -8 1 -59 c0 -33 4 -135 9 -226 9 -187 5 -216
-28 -221 -17 -2 -34 -26 -73 -100 -28 -54 -69 -118 -90 -144 -59 -70 -77 -95
-72 -99 2 -2 59 -15 126 -28 67 -13 125 -27 130 -31 4 -4 9 -88 12 -186 4
-128 9 -183 18 -192 14 -14 165 -24 207 -14 l25 6 0 143 c0 187 0 187 59 187
25 0 78 -9 116 -20 48 -14 122 -24 235 -30 91 -5 224 -16 295 -24 545 -64
1467 -83 1970 -41 33 3 121 9 195 15 326 25 681 68 697 84 3 3 -4 28 -16 55
-27 64 -27 68 12 91 l32 20 -52 0 c-65 0 -84 18 -114 108 -15 45 -19 76 -15
104 5 30 3 39 -6 36 -9 -3 -15 -38 -18 -116 -3 -62 -10 -116 -16 -122 -6 -6
-29 -10 -50 -8 l-39 3 -3 188 c-1 103 -4 187 -6 187 -2 0 -16 -4 -32 -10 -16
-5 -118 -25 -227 -44 -109 -19 -201 -36 -203 -39 -2 -2 9 -30 26 -62 24 -46
30 -69 30 -119 0 -97 -5 -106 -55 -106 -41 0 -43 1 -49 37 -3 21 -6 52 -6 70
0 17 -3 38 -6 47 -8 22 -61 21 -72 -1 -13 -25 -5 -41 29 -58 29 -16 38 -50 23
-89 -15 -38 -98 -1 -141 63 -26 39 -28 78 -8 136 8 22 11 43 6 48 -12 12 -41
-3 -41 -23 0 -10 -11 -32 -25 -48 -20 -24 -27 -47 -33 -104 l-7 -73 -42 -3
c-39 -3 -43 -1 -49 23 -4 15 -4 67 -1 116 l7 89 -70 0 -70 0 -1 -77 c0 -76 -4
-115 -14 -141 -3 -7 -24 -12 -55 -12 l-50 0 0 139 0 138 -42 9 -43 9 0 50 0
50 79 5 78 5 37 70 36 70 0 183 c0 182 0 184 -24 203 -20 17 -33 19 -85 13
-111 -12 -103 3 -111 -201 l-7 -178 -54 -97 c-55 -98 -98 -158 -114 -158 -16
0 -58 52 -135 163 l-75 109 0 163 c0 186 -3 194 -73 196 -157 5 -150 15 -145
-206 5 -204 5 -206 137 -385 124 -167 120 -157 68 -165 -57 -9 -279 -21 -301
-17 -16 3 -17 43 -15 595 l1 592 -117 3 -117 3 4 -597 3 -597 -163 6 c-90 4
-168 10 -174 13 -6 4 -7 36 -3 88 7 91 -9 193 -47 283 -12 29 -18 56 -14 60 4
4 57 9 117 11 l109 4 0 93 c0 51 -3 101 -6 110 -6 14 -33 15 -280 9 l-274 -7
0 74 c0 41 3 111 7 157 l6 82 305 0 305 0 -7 88 c-4 49 -14 97 -22 110 -17 26
18 25 -559 11z m-450 -619 c7 -45 15 -66 25 -68 9 -1 46 21 82 51 92 73 147
91 254 84 153 -9 275 -91 360 -242 l39 -70 3 -155 4 -155 -42 -83 c-90 -180
-252 -276 -430 -256 -72 8 -124 32 -183 82 -69 60 -84 67 -97 43 -6 -12 -10
-100 -10 -220 l0 -201 -93 0 -94 0 -7 502 c-7 491 -11 642 -21 704 -5 30 -5
30 57 41 35 6 81 10 103 9 l40 -1 10 -65z m3164 -470 c42 -21 84 -67 75 -81
-3 -5 -40 -9 -83 -9 -82 0 -110 -13 -97 -45 9 -25 35 -29 105 -17 36 6 70 7
74 3 12 -12 -2 -57 -28 -85 -73 -79 -230 -30 -251 78 -11 63 10 113 64 147 54
34 88 36 141 9z"/>
<path d="M3311 1137 c-45 -14 -132 -102 -162 -163 -21 -42 -24 -63 -24 -154 0
-92 3 -112 26 -160 51 -109 137 -165 249 -164 80 2 128 22 183 77 86 85 123
216 94 331 -26 107 -111 209 -196 234 -47 14 -124 14 -170 -1z m312 -177 c26
-54 36 -184 17 -230 -25 -60 -103 -44 -116 24 -9 49 -1 288 10 305 8 12 15 8
38 -20 16 -19 39 -54 51 -79z m-353 3 c0 -54 -3 -128 -7 -165 -6 -67 -6 -68
-32 -62 -72 17 -76 23 -75 104 0 76 16 121 66 193 37 52 48 37 48 -70z"/>
<path d="M2080 1618 l0 -85 71 -12 c328 -59 510 -407 367 -701 -38 -80 -140
-183 -221 -224 -75 -37 -189 -52 -297 -38 -199 25 -357 180 -405 395 l-16 74
-61 7 c-118 12 -112 16 -104 -62 25 -248 200 -471 440 -558 170 -62 358 -52
516 27 67 34 104 61 171 128 95 96 135 158 175 276 34 100 38 252 10 354 -46
170 -166 323 -326 419 -54 32 -178 70 -253 78 l-67 7 0 -85z"/>
<path d="M1865 1665 c-133 -47 -295 -177 -362 -292 -31 -53 -95 -232 -87 -245
3 -4 43 -8 88 -8 l83 0 23 63 c30 83 72 148 132 202 61 55 152 110 196 120 42
9 52 30 52 108 0 88 -10 92 -125 52z"/>
<path d="M2080 1385 c0 -49 -3 -57 -24 -67 -39 -17 -55 -5 -58 49 -3 41 -6 48
-25 51 -61 9 -205 -109 -258 -210 -39 -74 -32 -88 43 -88 52 0 60 3 72 25 7
14 18 25 23 25 5 0 50 -43 101 -95 96 -101 115 -110 180 -86 27 11 101 113
118 164 26 77 58 67 58 -18 0 -77 -60 -192 -151 -289 -90 -96 -111 -100 -134
-23 -21 71 -44 106 -100 153 -26 21 -65 55 -86 75 -35 33 -38 34 -41 15 -3
-18 -13 -22 -65 -30 l-62 -9 5 -31 c17 -96 69 -201 127 -252 22 -20 69 -50
106 -68 61 -29 74 -31 172 -31 101 0 108 1 181 38 89 44 136 92 182 187 28 59
31 74 31 165 0 93 -2 105 -32 165 -18 36 -46 82 -63 102 -37 45 -140 104 -213
124 -85 23 -87 22 -87 -41z"/>
</g>
</svg>
