<svg width="240" height="64" xmlns="http://www.w3.org/2000/svg">
 <g>
  <title>Layer 1</title>
  <g id="img">
   <rect id="rect3778" height="64" width="240" y="0" x="0" fill="none"/>
   <g id="g4194">
    <g id="g4145" fill="currentColor">
     <circle id="path2993" stroke-width="1.3262" transform="rotate(-30)" cy="43.713" cx="9.4364" r="2.2765"/>
     <path id="path3004" stroke-width="1.0095" d="m37.012,24.177l-2.8428,3.6128c0.66345,0.52205 1.3255,1.1576 1.7734,1.9333c0.4479,0.77578 0.66726,1.6669 0.78764,2.5025l4.5502,-0.65558c-0.193,-1.42 -0.633,-2.804 -1.394,-4.123s-1.74,-2.391 -2.874,-3.27l-0.00044,-0.00002z"/>
     <path id="path3014" stroke-width="1.0095" d="m42.504,16.9l-2.8428,3.6128c1.607,1.2355 3.0914,2.7935 4.1679,4.6581s1.6835,3.9291 1.95,5.9386l4.5502,-0.65558c-0.33967,-2.5954 -1.1669,-5.1513 -2.5573,-7.5594c-1.3903,-2.4081 -3.1901,-4.4025 -5.268,-5.9944l0,-0.00012z"/>
     <path id="path3036" stroke-width="3.6204" d="m28.667,44.439a9.1058,9.1058 0 0 1 -9.1058,0.00002a9.1058,9.1058 0 0 1 -4.5529,-7.8859a9.1058,9.1058 0 0 1 4.5529,-7.8859l4.5529,7.8859l4.5529,7.88588z"/>
     <path id="path3038-8" stroke-width="1.0095" d="m17.502,6.8895c-13.868,8.0065 -18.619,25.74 -10.612,39.608c8.006,13.868 25.739,18.619 39.608,10.613c13.868,-8.007 18.619,-25.74 10.613,-39.609c-8.007,-13.868 -25.74,-18.62 -39.609,-10.612zm1.706,2.9541c12.237,-7.0648 27.884,-2.8722 34.948,9.3644c7.065,12.237 2.873,27.884 -9.364,34.948c-12.237,7.065 -27.884,2.873 -34.948,-9.364c-7.0652,-12.237 -2.8726,-27.884 9.364,-34.948l0,-0.0004z"/>
    </g>
   </g>
   <text transform="matrix(1.60273 0 0 1.68105 -77.5945 -24.8079)" stroke="null" xml:space="preserve" text-anchor="start" font-family="Noto Sans JP" font-size="24" stroke-width="0" id="svg_1" y="41.5" x="92" fill="#ffffff">Track Me</text>
  </g>
 </g>

</svg>